<?xml version="1.0" encoding="utf-8"?>
<!-- Generator: Adobe Illustrator 27.7.0, SVG Export Plug-In . SVG Version: 6.00 Build 0)  -->
<svg version="1.1" id="Ebene_1" xmlns="http://www.w3.org/2000/svg" xmlns:xlink="http://www.w3.org/1999/xlink" x="0px" y="0px"
	 viewBox="0 0 641.9 360" style="enable-background:new 0 0 641.9 360;" xml:space="preserve">
<style type="text/css">
	.st0{clip-path:url(#SVGID_00000027564399615455862750000006936098294100196273_);fill:#243643;}
</style>
<g>
	<defs>
		<rect id="SVGID_1_" width="641.9" height="360"/>
	</defs>
	<clipPath id="SVGID_00000183958753570662547970000005332889295086682283_">
		<use xlink:href="#SVGID_1_"  style="overflow:visible;"/>
	</clipPath>
	<path style="clip-path:url(#SVGID_00000183958753570662547970000005332889295086682283_);fill:#243643;" d="M570.2,123.5
		c0.1-0.1,0.2-0.2,0.2-0.4v-12.9c0-0.2-0.2-0.5-0.4-0.5c0,0-248.6-38.2-248.8-38.2c-0.1,0-0.3,0-0.4,0c-0.1,0-248.8,38.2-248.8,38.2
		c-0.2,0-0.4,0.2-0.4,0.5v12.9c0,0.1,0.1,0.3,0.2,0.4c0.1,0.1,0.3,0.1,0.4,0.1l248.6-36.5c0,0,0.1,0,0.3,0l248.7,36.5
		c0,0,0.1,0,0.1,0C570,123.6,570.1,123.6,570.2,123.5 M88.2,215v-40.2c0-0.7,0.9-1,1.3-0.4l33,41.1c0.1,0.2,0.3,0.3,0.6,0.3h14.6
		c0.4,0,0.7-0.3,0.7-0.7V145c0-0.4-0.3-0.7-0.7-0.7h-15.1c-0.4,0-0.7,0.3-0.7,0.7v41.1c0,0.7-0.9,1-1.3,0.4l-32.5-42
		c-0.1-0.2-0.3-0.3-0.6-0.3H72.2c-0.4,0-0.7,0.3-0.7,0.7V215c0,0.4,0.3,0.7,0.7,0.7h15.2C87.8,215.8,88.2,215.4,88.2,215
		 M182.3,200.4v-13c0-0.4,0.3-0.7,0.7-0.7h24c0.4,0,0.7-0.3,0.7-0.7v-12.3c0-0.4-0.3-0.7-0.7-0.7h-24c-0.4,0-0.7-0.3-0.7-0.7v-12.5
		c0-0.4,0.3-0.7,0.7-0.7h32.3c0.4,0,0.7-0.3,0.7-0.7V145c0-0.4-0.3-0.7-0.7-0.7h-49.4c-0.4,0-0.7,0.3-0.7,0.7V215
		c0,0.4,0.3,0.7,0.7,0.7h49.8c0.4,0,0.7-0.3,0.7-0.7v-13.2c0-0.4-0.3-0.7-0.7-0.7H183C182.6,201.1,182.3,200.8,182.3,200.4
		 M269.4,214.8v-55.3c0-0.4,0.3-0.7,0.7-0.7h17.1c0.4,0,0.7-0.3,0.7-0.7V145c0-0.4-0.3-0.7-0.7-0.7h-52.9c-0.4,0-0.7,0.3-0.7,0.7
		V158c0,0.4,0.3,0.7,0.7,0.7h17.1c0.4,0,0.7,0.3,0.7,0.7v55.3c0,0.4,0.3,0.7,0.7,0.7h15.9C269,215.5,269.4,215.2,269.4,214.8
		 M319.6,163.4v-0.1c0-2.9,2.4-5.8,7.8-5.8c5.3,0,11.1,2.1,16.6,5.9c0.3,0.2,0.8,0.2,1-0.2l7.9-11.4c0.2-0.3,0.1-0.8-0.2-1
		c-7.1-5.2-15.2-7.7-24.9-7.7c-15.4,0-25.8,8.7-25.8,21.7v0.3c0,12.1,8.2,17.1,23.4,22.2c9,3.1,11.7,5.1,11.7,8.7v0.1
		c0,3-2.3,6.3-8.7,6.3c-6.5,0-13-2.5-19.5-7.4c-0.3-0.2-0.8-0.2-1,0.1l-8.3,11.1c-0.2,0.3-0.2,0.8,0.1,1c7.9,6.3,17.8,9.6,28.6,9.6
		c16,0,26.3-8.7,26.3-22.1v-0.2c0-12.1-9-17.5-22.4-21.8C322.9,169.4,319.6,167.5,319.6,163.4 M405,215v-55.6c0-0.4,0.3-0.7,0.7-0.7
		h17.1c0.4,0,0.7-0.3,0.7-0.7V145c0-0.4-0.3-0.7-0.7-0.7h-52.9c-0.4,0-0.7,0.3-0.7,0.7V158c0,0.4,0.3,0.7,0.7,0.7H387
		c0.4,0,0.7,0.3,0.7,0.7V215c0,0.4,0.3,0.7,0.7,0.7h15.9C404.7,215.8,405,215.4,405,215 M456,188.4l7.3-24.8c0.2-0.7,2.3-0.7,2.5,0
		l7.3,24.8c0.1,0.5-0.2,0.9-0.7,0.9h-15.7C456.2,189.3,455.9,188.9,456,188.4 M455,144.9l-25.1,69.9c-0.2,0.5,0.2,1,0.7,1h16.2
		c0.3,0,0.6-0.2,0.7-0.5l4-12.2c0.1-0.3,0.4-0.5,0.7-0.5h25c0.3,0,0.6,0.2,0.7,0.5l4.1,12.2c0.1,0.3,0.4,0.5,0.7,0.5h16.6
		c0.5,0,0.8-0.5,0.7-1l-25.2-69.9c-0.1-0.3-0.4-0.5-0.7-0.5h-18.3C455.4,144.4,455.1,144.6,455,144.9 M570.3,215.1v-13.3
		c0-0.4-0.3-0.7-0.7-0.7l-31.7,0c-0.4,0-0.7-0.3-0.7-0.7V145c0-0.4-0.3-0.7-0.7-0.7h-15.9c-0.4,0-0.7,0.3-0.7,0.7V215
		c0,0.4,0.3,0.7,0.7,0.7l49,0C570,215.8,570.3,215.5,570.3,215.1 M570.3,249.7v-12.9c0-0.1-0.1-0.3-0.2-0.4
		c-0.1-0.1-0.3-0.1-0.4-0.1l-248.6,36.5c0,0-0.1,0-0.3,0L72.1,236.4c0,0-0.1,0-0.1,0c-0.1,0-0.2,0-0.3,0.1c-0.1,0.1-0.2,0.2-0.2,0.4
		v12.9c0,0.2,0.2,0.5,0.4,0.5c0,0,248.6,38.2,248.8,38.2c0.1,0,0.3,0,0.4,0c0.1,0,248.8-38.2,248.8-38.2
		C570.2,250.2,570.3,250,570.3,249.7"/>
</g>
</svg>
