<?xml version="1.0" encoding="UTF-8"?>
<svg version="1.1" xmlns="http://www.w3.org/2000/svg" width="225" height="225">
<path d="M0 0 C0.0231206 13.54264178 0.04091364 27.0852789 0.05181217 40.62793636 C0.05704162 46.91562024 0.06414039 53.20329066 0.07543945 59.4909668 C0.08626614 65.55337723 0.09227637 71.61577469 0.09487724 77.67819405 C0.09673189 79.99676277 0.10035325 82.31533074 0.10573006 84.63389397 C0.11293758 87.86914508 0.11399106 91.10434183 0.11352539 94.33959961 C0.11712067 95.30848114 0.12071594 96.27736267 0.12442017 97.27560425 C0.1230455 98.15205093 0.12167084 99.02849762 0.12025452 99.9315033 C0.12117631 100.69751327 0.1220981 101.46352324 0.12304783 102.25274563 C0 104 0 104 -1 105 C-2.39143689 105.09543095 -3.78768367 105.12188575 -5.18238831 105.12025452 C-6.53492203 105.12231651 -6.53492203 105.12231651 -7.91477966 105.12442017 C-8.91171341 105.12082489 -9.90864716 105.11722961 -10.93579102 105.11352539 C-11.97956909 105.11367142 -13.02334717 105.11381744 -14.09875488 105.1139679 C-17.56715943 105.11326826 -21.03551103 105.10547353 -24.50390625 105.09765625 C-26.90144318 105.09579225 -29.2989805 105.09436826 -31.69651794 105.09336853 C-38.02095584 105.08954194 -44.34537094 105.07971046 -50.6697998 105.06866455 C-57.11775402 105.05845345 -63.56571191 105.05387156 -70.01367188 105.04882812 C-82.675791 105.03808832 -95.33789429 105.02120119 -108 105 C-107.04867608 103.88323427 -106.09636668 102.76730799 -105.14364624 101.6517334 C-104.61343557 101.03021141 -104.08322491 100.40868942 -103.53694725 99.76833344 C-101.6188878 97.56151166 -99.60469482 95.47514703 -97.5390625 93.40625 C-96.73726562 92.60316406 -95.93546875 91.80007812 -95.109375 90.97265625 C-93.87960938 89.74869141 -93.87960938 89.74869141 -92.625 88.5 C-91.40683594 87.27603516 -91.40683594 87.27603516 -90.1640625 86.02734375 C-89.3596875 85.22425781 -88.5553125 84.42117187 -87.7265625 83.59375 C-86.65269287 82.52157227 -86.65269287 82.52157227 -85.55712891 81.42773438 C-83.5059021 79.4803027 -81.42545464 77.63010901 -79.28271484 75.78710938 C-74.55381161 71.67482796 -70.15690237 67.26463064 -65.75 62.8125 C-64.89245117 61.95116455 -64.03490234 61.0898291 -63.15136719 60.20239258 C-60.43179111 57.4706888 -57.715488 54.73576725 -55 52 C-51.41961974 48.39288149 -47.83584819 44.78918198 -44.25 41.1875 C-43.03715332 39.96220581 -43.03715332 39.96220581 -41.79980469 38.7121582 C-37.61129244 34.50577985 -33.3401118 30.4882397 -28.840271 26.61764526 C-26.03674295 24.15327242 -23.42849527 21.51557623 -20.8203125 18.84765625 C-19.71627059 17.73099643 -18.61210046 16.61446337 -17.5078125 15.49804688 C-15.80085405 13.76607351 -14.09557155 12.03250339 -12.39257812 10.29663086 C-10.7269587 8.60099814 -9.05532413 6.91148699 -7.3828125 5.22265625 C-6.87138702 4.69777115 -6.35996155 4.17288605 -5.83303833 3.63209534 C-2.22662057 0 -2.22662057 0 0 0 Z " fill="#081D30" transform="translate(221,96)"/>
<path d="M0 0 C3.60483543 1.80241771 5.3368832 3.09616631 8.09082031 5.87963867 C8.88554749 6.6777446 9.68027466 7.47585052 10.49908447 8.29814148 C11.35016785 9.16268448 12.20125122 10.02722748 13.078125 10.91796875 C14.40623199 12.2538781 14.40623199 12.2538781 15.76116943 13.61677551 C18.11577764 15.98618777 20.46624855 18.35954285 22.81439209 20.73535156 C26.10391159 24.06277165 29.39842732 27.38521159 32.69598389 30.70466614 C34.44852819 32.46934753 36.19839351 34.23669491 37.94512939 36.00712585 C42.16827549 40.26443494 46.46384128 44.33007315 51.01116943 48.23725891 C54.77507289 51.5732833 58.27667398 55.17580991 61.8125 58.75 C62.62565674 59.56694336 63.43881348 60.38388672 64.27661133 61.22558594 C67.7217734 64.68695042 71.1609029 68.15428591 74.60058594 71.62109375 C77.12746508 74.16615188 79.65741315 76.70813131 82.1875 79.25 C82.95231689 80.02311523 83.71713379 80.79623047 84.50512695 81.59277344 C88.64105957 85.74730982 92.86187467 89.72913072 97.31262207 93.545578 C99.45393424 95.39126501 101.49136397 97.32379091 103.5 99.3125 C104.1703125 99.96863281 104.840625 100.62476563 105.53125 101.30078125 C107 103 107 103 107 105 C71.69 105 36.38 105 0 105 C0 70.35 0 35.7 0 0 Z " fill="#0C2032" transform="translate(5,96)"/>
<path d="M0 0 C71.28 0 142.56 0 216 0 C216 14.19 216 28.38 216 43 C208.05147886 39.02573943 202.17731928 31.40524799 196.47265625 24.69140625 C195.98667969 24.13324219 195.50070313 23.57507813 195 23 C194.41687892 22.21987234 194.41687892 22.21987234 193.82197762 21.42398453 C191.08580066 19.28549851 188.81595678 19.57957318 185.3757019 19.52484131 C184.69909645 19.51028342 184.022491 19.49572552 183.32538235 19.48072648 C181.05270002 19.4358969 178.78032477 19.41266396 176.50732422 19.38964844 C174.87929551 19.36266728 173.25128424 19.33461583 171.62329102 19.30557251 C166.26728734 19.21653385 160.9111673 19.16069789 155.5546875 19.109375 C154.1852228 19.09550987 154.1852228 19.09550987 152.78809214 19.08136463 C144.16583187 18.99459011 135.54355146 18.91924762 126.92097282 18.87279892 C115.91850253 18.81290926 104.92002836 18.69622832 93.9191283 18.49952292 C86.17111329 18.3657426 78.42416447 18.29822221 70.67502987 18.27848458 C66.05433259 18.26499017 61.43806209 18.2235978 56.81863022 18.11089325 C34.71692935 16.79567522 34.71692935 16.79567522 15.57284737 25.91263199 C12.34502054 29.392659 9.63838104 33.06451665 7 37 C5.40696634 39.10394249 3.77618744 41.04141887 2 43 C1.34 43 0.68 43 0 43 C0 28.81 0 14.62 0 0 Z " fill="#091C2E" transform="translate(5,18)"/>
<path d="M0 0 C2.17937875 3.26906813 2.46185013 5.0048792 2.96142578 8.84838867 C3.12144073 10.0494072 3.28145569 11.25042572 3.44631958 12.48783875 C3.61098724 13.78478165 3.77565491 15.08172455 3.9453125 16.41796875 C4.12112984 17.75898601 4.29764283 19.09991224 4.474823 20.44075012 C4.93877957 23.96619244 5.39327973 27.49279159 5.8458252 31.01971436 C6.30948334 34.62000868 6.78206914 38.21912949 7.25390625 41.81835938 C8.17801457 48.87778291 9.09213841 55.93846717 10 63 C10.48085556 62.18462265 10.96171112 61.3692453 11.45713806 60.52915955 C26.27678234 35.40453747 26.27678234 35.40453747 33.60546875 23.80859375 C36.49362756 19.23536904 39.3084189 14.61753115 42.125 10 C42.61137939 9.20263428 43.09775879 8.40526855 43.59887695 7.58374023 C44.73323927 5.72289239 45.86672096 3.86150777 47 2 C48.22839456 5.68518369 47.62837102 6.82374492 46.38525391 10.44946289 C46.00801178 11.56394302 45.63076965 12.67842316 45.24209595 13.82667542 C44.82446991 15.02984909 44.40684387 16.23302277 43.9765625 17.47265625 C43.55579437 18.70664658 43.13502625 19.9406369 42.70150757 21.21202087 C41.58216944 24.49378782 40.45176315 27.77164103 39.3192749 31.04888916 C38.39611422 33.72633918 37.48075515 36.40642358 36.56582069 39.08669376 C34.67658387 44.62057949 32.7812281 50.15238069 30.87353516 55.67993164 C30.5352066 56.66127579 30.19687805 57.64261993 29.84829712 58.65370178 C29 61 29 61 28 63 C35.39154745 57.23690285 42.73854544 51.42647224 50 45.5 C54.96236174 41.4502223 59.9515812 37.44200491 65 33.5 C71.49113545 28.43054611 77.88208688 23.24299958 84.265625 18.0390625 C88.818937 14.32818284 93.40352744 10.65728947 98 7 C98.99 7.495 98.99 7.495 100 8 C94.59587639 13.42961148 89.1877311 18.85519345 83.77685547 24.27807617 C81.93902648 26.12091419 80.10209851 27.96465125 78.26611328 29.80932617 C75.61731177 32.47034408 72.96521875 35.12804403 70.3125 37.78515625 C69.50071289 38.60210464 68.68892578 39.41905304 67.85253906 40.26075745 C63.67698299 44.43671775 59.42057848 48.42634667 54.94555664 52.27806091 C51.50193021 55.32588529 48.29318568 58.60473295 45.0625 61.875 C43.97594116 62.96723877 43.97594116 62.96723877 42.86743164 64.08154297 C40.57581697 66.38525646 38.28749348 68.69219474 36 71 C32.98214919 74.04464779 29.96086584 77.08582967 26.9375 80.125 C26.26017822 80.81062012 25.58285645 81.49624023 24.88500977 82.20263672 C20.97173043 86.13567279 16.95184535 89.87491203 12.73950195 93.48658752 C10.38602612 95.53417343 8.18802689 97.71528519 6 99.9375 C5.236875 100.70964844 4.47375 101.48179687 3.6875 102.27734375 C3.130625 102.84582031 2.57375 103.41429687 2 104 C-1.86726822 102.39078959 -4.65845165 99.78791812 -7.66796875 96.95703125 C-8.50801704 96.17390312 -8.50801704 96.17390312 -9.36503601 95.37495422 C-17.20331703 88.00640687 -24.74119745 80.32796942 -32.3125 72.6875 C-35.28476038 69.68840782 -38.26049852 66.69282676 -41.23828125 63.69921875 C-41.89991776 63.02928391 -42.56155426 62.35934906 -43.24324036 61.66911316 C-47.0427904 57.84989544 -50.96267425 54.25435301 -55.04020691 50.73493958 C-58.25773237 47.88657141 -61.26432002 44.83910771 -64.28125 41.78125 C-64.93903442 41.11967896 -65.59681885 40.45810791 -66.27453613 39.77648926 C-69.05066558 36.98421856 -71.82071537 34.18594584 -74.59130859 31.38818359 C-76.6316708 29.32959102 -78.67514331 27.27412097 -80.71875 25.21875 C-81.33045044 24.59875122 -81.94215088 23.97875244 -82.5723877 23.33996582 C-86.29414109 19.5975234 -90.13628214 16.07370457 -94.16418457 12.6619873 C-97.08583589 10.01697881 -99.51018623 7.05002186 -102 4 C-99.23344582 5.29108381 -96.95037933 6.7064804 -94.6015625 8.65234375 C-93.96476562 9.17570312 -93.32796875 9.6990625 -92.671875 10.23828125 C-91.99640625 10.79902344 -91.3209375 11.35976562 -90.625 11.9375 C-89.18046525 13.12464492 -87.73513907 14.31082742 -86.2890625 15.49609375 C-85.5662207 16.08890137 -84.84337891 16.68170898 -84.09863281 17.29248047 C-81.0966513 19.73499544 -78.05256619 22.12122227 -75 24.5 C-69.26312535 28.97850046 -63.61016479 33.55345885 -57.97192383 38.15527344 C-53.01562448 42.19333921 -48.00619787 46.15753238 -42.96826172 50.09301758 C-37.57665114 54.31230088 -32.2771698 58.63825761 -27 63 C-28.95607815 56.35021541 -31.03859306 49.75649318 -33.25 43.1875 C-33.54938477 42.29313232 -33.84876953 41.39876465 -34.15722656 40.47729492 C-35.10334236 37.65103294 -36.05141321 34.82543351 -37 32 C-38.2517972 28.27143262 -39.50151096 24.54217623 -40.75 20.8125 C-41.03133789 19.97678467 -41.31267578 19.14106934 -41.60253906 18.2800293 C-43.5192284 12.55337735 -45.29584542 6.79335794 -47 1 C-44.31223511 3.58740861 -42.51371583 6.22511799 -40.5859375 9.43359375 C-39.91506104 10.54492676 -39.24418457 11.65625977 -38.55297852 12.80126953 C-38.19809357 13.39377502 -37.84320862 13.98628052 -37.47756958 14.59674072 C-36.36389078 16.45604703 -35.24503033 18.31214174 -34.12475586 20.16748047 C-32.55323458 22.77136295 -30.98388698 25.37653461 -29.41650391 27.98291016 C-25.84860508 33.91543839 -22.27205207 39.84270135 -18.68707275 45.7649231 C-17.57515789 47.60406347 -16.46692525 49.44538763 -15.35888672 51.28686523 C-14.68486816 52.40134033 -14.01084961 53.51581543 -13.31640625 54.6640625 C-12.42610718 56.14060303 -12.42610718 56.14060303 -11.51782227 57.64697266 C-10.07446399 60.06614542 -10.07446399 60.06614542 -8 62 C-5.36 41.54 -2.72 21.08 0 0 Z " fill="#0D1F31" transform="translate(112,75)"/>
<path d="M0 0 C0.66 0 1.32 0 2 0 C2.0231206 13.54264178 2.04091364 27.0852789 2.05181217 40.62793636 C2.05704162 46.91562024 2.06414039 53.20329066 2.07543945 59.4909668 C2.08626614 65.55337723 2.09227637 71.61577469 2.09487724 77.67819405 C2.09673189 79.99676277 2.10035325 82.31533074 2.10573006 84.63389397 C2.11293758 87.86914508 2.11399106 91.10434183 2.11352539 94.33959961 C2.11712067 95.30848114 2.12071594 96.27736267 2.12442017 97.27560425 C2.1230455 98.15205093 2.12167084 99.02849762 2.12025452 99.9315033 C2.12117631 100.69751327 2.1220981 101.46352324 2.12304783 102.25274563 C2 104 2 104 1 105 C-0.39143689 105.09543095 -1.78768367 105.12188575 -3.18238831 105.12025452 C-4.53492203 105.12231651 -4.53492203 105.12231651 -5.91477966 105.12442017 C-6.91171341 105.12082489 -7.90864716 105.11722961 -8.93579102 105.11352539 C-9.97956909 105.11367142 -11.02334717 105.11381744 -12.09875488 105.1139679 C-15.56715943 105.11326826 -19.03551103 105.10547353 -22.50390625 105.09765625 C-24.90144318 105.09579225 -27.2989805 105.09436826 -29.69651794 105.09336853 C-36.02095584 105.08954194 -42.34537094 105.07971046 -48.6697998 105.06866455 C-55.11775402 105.05845345 -61.56571191 105.05387156 -68.01367188 105.04882812 C-80.675791 105.03808832 -93.33789429 105.02120119 -106 105 C-105.34 104.01 -104.68 103.02 -104 102 C-102.1296978 101.64647388 -102.1296978 101.64647388 -99.81124878 101.67720032 C-98.49451675 101.68363556 -98.49451675 101.68363556 -97.15118408 101.69020081 C-96.18589783 101.71033737 -95.22061157 101.73047394 -94.22607422 101.7512207 C-92.70407913 101.76519394 -92.70407913 101.76519394 -91.15133667 101.77944946 C-87.78545363 101.81392321 -84.42027601 101.86980029 -81.0546875 101.92578125 C-78.72585569 101.95380276 -76.39700752 101.98049438 -74.06814575 102.00590515 C-67.92927652 102.07647798 -61.79079616 102.16517812 -55.65222168 102.25756836 C-48.2919195 102.36460827 -40.93133068 102.44928589 -33.57078552 102.53768158 C-22.38020896 102.67459291 -11.19037778 102.84002732 0 103 C0 69.01 0 35.02 0 0 Z " fill="#4A4F5F" transform="translate(219,96)"/>
<path d="M0 0 C0.66 0.33 1.32 0.66 2 1 C-6.58 9.58 -15.16 18.16 -24 27 C-24.66 26.34 -25.32 25.68 -26 25 C-22.94334933 21.91855124 -19.88336724 18.84046078 -16.8203125 15.76538086 C-15.77968613 14.71973904 -14.73996076 13.67319971 -13.70117188 12.62573242 C-12.20420968 11.11658231 -10.70399132 9.61073502 -9.203125 8.10546875 C-8.30239258 7.19949951 -7.40166016 6.29353027 -6.47363281 5.36010742 C-4.39813446 3.3798624 -2.34004409 1.64996986 0 0 Z " fill="#222D3D" transform="translate(142,172)"/>
<path d="M0 0 C3.12557301 2.73117894 5.07807514 6.16670588 7.1875 9.6875 C7.55552734 10.29400391 7.92355469 10.90050781 8.30273438 11.52539062 C9.20564926 13.01461388 10.10334696 14.50699815 11 16 C9 17 9 17 7.046875 16.99609375 C5 16 5 16 3.515625 12.91015625 C3.07712547 11.63319246 2.65584099 10.35021559 2.25 9.0625 C1.91935547 8.09280273 1.91935547 8.09280273 1.58203125 7.10351562 C0 2.3721613 0 2.3721613 0 0 Z " fill="#242D3D" transform="translate(65,76)"/>
<path d="M0 0 C4.01455213 1.73897679 7.32025266 4.39785015 10.75 7.0625 C11.35199219 7.52205078 11.95398438 7.98160156 12.57421875 8.45507812 C14.07031381 9.61022635 15.53795201 10.80205028 17 12 C17 12.33 17 12.66 17 13 C14.89453125 13.37109375 14.89453125 13.37109375 12 13 C9.62127046 11.28450467 7.68485393 9.2006152 5.6875 7.0625 C5.13771484 6.49853516 4.58792969 5.93457031 4.02148438 5.35351562 C0 1.18216227 0 1.18216227 0 0 Z " fill="#3F454F" transform="translate(10,79)"/>
<path d="M0 0 C2.18994248 3.28491373 2.35277339 4.83095639 2.625 8.6875 C2.69976562 9.68136719 2.77453125 10.67523438 2.8515625 11.69921875 C2.92503906 12.83810547 2.92503906 12.83810547 3 14 C2.01 14.33 1.02 14.66 0 15 C-1.2063366 9.77254141 -0.75612577 5.23471686 0 0 Z " fill="#2B3545" transform="translate(112,75)"/>
<path d="M0 0 C1.28497537 3.85492611 0.4052209 5.40346836 -0.9375 9.1875 C-1.31777344 10.27417969 -1.69804687 11.36085938 -2.08984375 12.48046875 C-2.39019531 13.31191406 -2.69054687 14.14335938 -3 15 C-3.66 14.67 -4.32 14.34 -5 14 C-5.74737188 8.02102497 -3.3231898 4.67620279 0 0 Z " fill="#2C3343" transform="translate(159,77)"/>
<path d="M0 0 C1.30138849 2.60277697 1.4217343 4.11814893 1 7 C-1.375 8.875 -1.375 8.875 -4 10 C-4.66 9.67 -5.32 9.34 -6 9 C-4.02 6.03 -2.04 3.06 0 0 Z " fill="#172235" transform="translate(154,86)"/>
<path d="M0 0 C0.66 0.33 1.32 0.66 2 1 C0.02 1.99 0.02 1.99 -2 3 C-1.34 2.01 -0.68 1.02 0 0 Z " fill="#6D737E" transform="translate(215,78)"/>
<path d="" fill="#7B8289" transform="translate(0,0)"/>
<path d="" fill="#000000" transform="translate(0,0)"/>
<path d="" fill="#47515C" transform="translate(0,0)"/>
<path d="" fill="#848A90" transform="translate(0,0)"/>
<path d="" fill="#5F6770" transform="translate(0,0)"/>
<path d="" fill="#989DA3" transform="translate(0,0)"/>
<path d="" fill="#848A90" transform="translate(0,0)"/>
</svg>
